<svg id="visual" viewBox="0 0 1400 900" width="1400" height="900" xmlns="http://www.w3.org/2000/svg" xmlns:xlink="http://www.w3.org/1999/xlink" version="1.1"><defs><linearGradient id="grad1_0" x1="35.7%" y1="0%" x2="100%" y2="100%"><stop offset="18.888888888888886%" stop-color="#fefefe" stop-opacity="1"></stop><stop offset="81.11111111111111%" stop-color="#fefefe" stop-opacity="1"></stop></linearGradient></defs><defs><linearGradient id="grad2_0" x1="0%" y1="0%" x2="64.3%" y2="100%"><stop offset="18.888888888888886%" stop-color="#fefefe" stop-opacity="1"></stop><stop offset="81.11111111111111%" stop-color="#fefefe" stop-opacity="1"></stop></linearGradient></defs><g transform="translate(1400, 0)"><path d="M0 582.5C-37.6 574.3 -75.2 566.1 -110 553.2C-144.8 540.2 -176.8 522.6 -212 511.8C-247.2 501 -285.6 497.1 -323.6 484.3C-361.7 471.6 -399.4 450 -410.8 410.8C-422.2 371.7 -407.3 315 -414.1 276.7C-420.9 238.4 -449.3 218.6 -462.9 191.7C-476.4 164.9 -474.9 131.1 -492.4 97.9C-509.8 64.8 -546.2 32.4 -582.5 0L0 0Z" fill="#54d632"></path></g><g transform="translate(0, 900)"><path d="M0 -582.5C39.7 -580 79.5 -577.5 110.2 -554.1C141 -530.8 162.8 -486.5 192.5 -464.7C222.2 -442.9 259.8 -443.4 285.6 -427.4C311.3 -411.3 325.1 -378.6 363.5 -363.5C401.8 -348.3 464.7 -350.7 484.3 -323.6C504 -296.6 480.5 -240 483.2 -200.1C485.8 -160.3 514.6 -137.1 535.5 -106.5C556.4 -75.9 569.5 -38 582.5 0L0 0Z" fill="#54d632"></path></g></svg>