<?xml version="1.0" standalone="no"?>
<!DOCTYPE svg PUBLIC "-//W3C//DTD SVG 20010904//EN"
 "http://www.w3.org/TR/2001/REC-SVG-20010904/DTD/svg10.dtd">
<svg version="1.0" xmlns="http://www.w3.org/2000/svg"
 width="187.000000pt" height="201.000000pt" viewBox="0 0 187.000000 201.000000"
 preserveAspectRatio="xMidYMid meet">

<g transform="translate(0.000000,201.000000) scale(0.100000,-0.100000)"
fill="#fff" stroke="none">
<path d="M980 1779 c-255 -10 -576 -56 -650 -94 -74 -38 -90 -111 -90 -408 0
-223 10 -356 36 -485 27 -131 46 -153 161 -182 83 -21 321 -50 460 -57 l143
-6 86 -134 c47 -73 89 -135 93 -137 8 -5 229 49 238 57 2 3 -21 65 -51 139
-59 141 -64 158 -43 158 21 0 151 66 169 86 40 47 64 197 78 498 14 295 4 385
-47 453 -25 35 -91 77 -145 95 -51 16 -245 24 -438 17z m229 -382 c48 -17 55
-51 42 -197 -10 -111 -43 -266 -59 -282 -5 -5 -32 41 -61 101 l-53 109 -51
-15 c-102 -30 -267 -105 -267 -121 0 -4 20 -40 45 -80 25 -40 45 -74 45 -77 0
-12 -103 -2 -180 18 l-85 22 -17 90 c-25 129 -42 289 -34 319 9 35 46 52 167
76 207 41 446 59 508 37z"/>
</g>
</svg>
