<?xml version="1.0" standalone="no"?>
<!DOCTYPE svg PUBLIC "-//W3C//DTD SVG 20010904//EN"
 "http://www.w3.org/TR/2001/REC-SVG-20010904/DTD/svg10.dtd">
<svg version="1.0" xmlns="http://www.w3.org/2000/svg"
 width="100.000000pt" height="100.000000pt" viewBox="0 0 100.000000 100.000000"
 preserveAspectRatio="xMidYMid meet">

<g transform="translate(0.000000,100.000000) scale(0.100000,-0.100000)"
fill="#000000" stroke="none">
<path d="M712 728 c-22 -22 -12 -42 54 -115 l65 -73 -397 -2 c-365 -3 -398 -4
-408 -20 -8 -13 -8 -23 0 -35 10 -17 43 -18 408 -21 l397 -2 -65 -73 c-36 -39
-66 -79 -66 -88 0 -20 20 -39 40 -39 19 0 230 221 230 240 0 19 -211 240 -230
240 -9 0 -21 -5 -28 -12z"/>
</g>
</svg>
