<svg xmlns="http://www.w3.org/2000/svg" xmlns:xlink="http://www.w3.org/1999/xlink" version="1.1" style="shape-rendering:geometricPrecision; text-rendering:geometricPrecision; image-rendering:optimizeQuality; fill-rule:evenodd; clip-rule:evenodd" viewBox="6.5 7.5 185 42.87">
<g><path style="opacity:0.829" fill="#000000" d="M 160.5,7.5 C 161.833,7.5 163.167,7.5 164.5,7.5C 164.018,15.4541 162.185,23.1207 159,30.5C 156.803,36.0911 154.803,41.7578 153,47.5C 151.776,50.473 149.776,51.1397 147,49.5C 146.333,48.1667 146.333,46.8333 147,45.5C 151.41,32.7671 155.91,20.1004 160.5,7.5 Z"/></g>
<g><path style="opacity:0.873" fill="#000000" d="M 24.5,10.5 C 28.3315,10.1902 29.8315,11.8569 29,15.5C 24.1667,20.3333 19.3333,25.1667 14.5,30C 19.3333,34.8333 24.1667,39.6667 29,44.5C 30.1667,48.6667 28.6667,50.1667 24.5,49C 18.3185,42.9855 12.3185,36.8188 6.5,30.5C 12.152,23.515 18.152,16.8483 24.5,10.5 Z"/></g>
<g><path style="opacity:0.872" fill="#000000" d="M 170.5,10.5 C 171.552,10.3505 172.552,10.5172 173.5,11C 180.052,17.0494 186.052,23.5494 191.5,30.5C 185.437,37.5656 178.77,43.899 171.5,49.5C 169.061,48.6221 168.228,46.9554 169,44.5C 173.833,39.6667 178.667,34.8333 183.5,30C 178.667,25.1667 173.833,20.3333 169,15.5C 168.387,13.5048 168.887,11.8381 170.5,10.5 Z"/></g>
<g><path style="opacity:0.812" fill="#000000" d="M 41.5,15.5 C 50.9325,16.6728 54.7659,22.0062 53,31.5C 52.4641,33.8689 51.2974,35.8689 49.5,37.5C 50.8333,39.1667 52.1667,40.8333 53.5,42.5C 49.908,44.2997 47.2413,43.4664 45.5,40C 34.2473,40.083 29.4139,34.583 31,23.5C 33.2431,18.9838 36.7431,16.3171 41.5,15.5 Z M 39.5,20.5 C 47.0978,20.3341 49.9312,24.0008 48,31.5C 43.4913,36.9943 39.4913,36.661 36,30.5C 35.3333,28.5 35.3333,26.5 36,24.5C 37.3756,23.2949 38.5423,21.9616 39.5,20.5 Z"/></g>
<g><path style="opacity:0.796" fill="#000000" d="M 62.5,16.5 C 64.5,16.5 66.5,16.5 68.5,16.5C 70.6682,24.1709 73.3349,31.6709 76.5,39C 74.5273,39.4955 72.5273,39.6621 70.5,39.5C 70.8435,35.8661 69.1768,34.1995 65.5,34.5C 62.159,33.8431 60.159,35.1765 59.5,38.5C 57.8333,39.8333 56.1667,39.8333 54.5,38.5C 57.1803,31.1456 59.847,23.8123 62.5,16.5 Z M 64.5,23.5 C 66.2927,25.4261 67.2927,27.7594 67.5,30.5C 65.8008,30.6602 64.1341,30.4935 62.5,30C 63.6687,27.9935 64.3354,25.8268 64.5,23.5 Z"/></g>
<g><path style="opacity:0.813" fill="#000000" d="M 78.5,16.5 C 80.604,16.2011 82.604,16.5344 84.5,17.5C 86.246,21.3267 88.246,24.9934 90.5,28.5C 92.754,24.9934 94.754,21.3267 96.5,17.5C 98.396,16.5344 100.396,16.2011 102.5,16.5C 102.5,24.1667 102.5,31.8333 102.5,39.5C 100.833,39.5 99.1667,39.5 97.5,39.5C 97.6655,35.4862 97.4988,31.4862 97,27.5C 92.6667,39.5 88.3333,39.5 84,27.5C 83.5012,31.4862 83.3345,35.4862 83.5,39.5C 81.8333,39.5 80.1667,39.5 78.5,39.5C 78.5,31.8333 78.5,24.1667 78.5,16.5 Z"/></g>
<g><path style="opacity:0.795" fill="#000000" d="M 112.5,16.5 C 114.604,16.2011 116.604,16.5344 118.5,17.5C 121.167,24.5 123.833,31.5 126.5,38.5C 122.608,40.4233 120.274,39.2567 119.5,35C 116.773,34.1816 114.106,34.3483 111.5,35.5C 110.754,36.7362 110.421,38.0695 110.5,39.5C 108.473,39.6621 106.473,39.4955 104.5,39C 107.665,31.6709 110.332,24.1709 112.5,16.5 Z M 115.5,23.5 C 116.578,25.5394 117.578,27.706 118.5,30C 116.866,30.4935 115.199,30.6602 113.5,30.5C 113.767,28.0347 114.434,25.7014 115.5,23.5 Z"/></g>
<g><path style="opacity:0.802" fill="#000000" d="M 128.5,16.5 C 132.846,16.3343 137.179,16.501 141.5,17C 146.788,21.4603 146.788,25.9603 141.5,30.5C 142.833,33.1667 144.167,35.8333 145.5,38.5C 143.604,39.4656 141.604,39.7989 139.5,39.5C 139.186,35.1607 137.186,32.1607 133.5,30.5C 133.5,33.5 133.5,36.5 133.5,39.5C 131.833,39.5 130.167,39.5 128.5,39.5C 128.5,31.8333 128.5,24.1667 128.5,16.5 Z M 133.5,20.5 C 138.479,19.65 140.479,21.4834 139.5,26C 137.527,26.4955 135.527,26.6621 133.5,26.5C 133.5,24.5 133.5,22.5 133.5,20.5 Z"/></g>
</svg>