<svg xmlns="http://www.w3.org/2000/svg" xmlns:xlink="http://www.w3.org/1999/xlink" version="1.1" style="shape-rendering:geometricPrecision; text-rendering:geometricPrecision; image-rendering:optimizeQuality; fill-rule:evenodd; clip-rule:evenodd" viewBox="6.5 7.44 184 38.94">
<g><path style="opacity:0.875" fill="#000000" d="M 23.5,7.5 C 25.1667,7.5 26.8333,7.5 28.5,7.5C 28.6602,9.19919 28.4935,10.8659 28,12.5C 23.3181,17.0148 18.8181,21.6815 14.5,26.5C 18.8181,31.3185 23.3181,35.9852 28,40.5C 28.49,41.7932 28.6567,43.1266 28.5,44.5C 26.4727,44.6621 24.4727,44.4955 22.5,44C 16.5834,38.5886 11.2501,32.7553 6.5,26.5C 11.7878,19.876 17.4545,13.5427 23.5,7.5 Z"/></g>
<g><path style="opacity:0.835" fill="#000000" d="M 160.5,7.5 C 165.068,7.08258 166.568,9.08258 165,13.5C 160.737,24.6354 155.904,35.4687 150.5,46C 146.333,47.1667 144.833,45.6667 146,41.5C 150.573,30.025 155.406,18.6917 160.5,7.5 Z"/></g>
<g><path style="opacity:0.834" fill="#000000" d="M 169.5,7.5 C 171.199,7.33982 172.866,7.50649 174.5,8C 179.667,13.1667 184.833,18.3333 190,23.5C 190.667,25.5 190.667,27.5 190,29.5C 184.583,35.5891 178.583,40.9224 172,45.5C 171.228,45.3552 170.561,45.0219 170,44.5C 169.333,42.8333 169.333,41.1667 170,39.5C 174.5,35 179,30.5 183.5,26C 179,21.5 174.5,17 170,12.5C 169.506,10.8659 169.34,9.19919 169.5,7.5 Z"/></g>
<g><path style="opacity:0.847" fill="#000000" d="M 37.5,14.5 C 51.0465,15.5874 54.7132,22.254 48.5,34.5C 54.3138,40.2167 52.9805,42.05 44.5,40C 43.8333,39 43.1667,38 42.5,37C 31.2886,36.086 27.4553,30.2527 31,19.5C 32.8049,17.1743 34.9716,15.5077 37.5,14.5 Z M 39.5,20.5 C 44.1508,21.2395 45.6508,23.9062 44,28.5C 39.8571,31.6712 37.3571,30.6712 36.5,25.5C 36.3227,23.0321 37.3227,21.3654 39.5,20.5 Z"/></g>
<g><path style="opacity:0.849" fill="#000000" d="M 59.5,14.5 C 62.2469,14.1866 64.9135,14.52 67.5,15.5C 70.1343,22.427 72.4676,29.427 74.5,36.5C 72.1667,36.5 69.8333,36.5 67.5,36.5C 67.5,35.5 67.5,34.5 67.5,33.5C 64.8333,33.5 62.1667,33.5 59.5,33.5C 59.5,34.5 59.5,35.5 59.5,36.5C 57.1667,36.5 54.8333,36.5 52.5,36.5C 54.8333,29.1667 57.1667,21.8333 59.5,14.5 Z M 62.5,24.5 C 64.0257,25.1047 65.0257,26.2714 65.5,28C 64.1667,28.6667 62.8333,28.6667 61.5,28C 62.3366,26.9887 62.67,25.8221 62.5,24.5 Z"/></g>
<g><path style="opacity:0.859" fill="#000000" d="M 76.5,14.5 C 78.8568,14.3367 81.1902,14.5034 83.5,15C 85.1441,18.9367 86.9774,22.7701 89,26.5C 90.4023,22.7931 91.9023,19.1264 93.5,15.5C 96.0865,14.52 98.7531,14.1866 101.5,14.5C 101.5,21.8333 101.5,29.1667 101.5,36.5C 99.1667,36.5 96.8333,36.5 94.5,36.5C 94.7775,27.981 93.9442,27.6477 92,35.5C 89.8615,36.7691 87.6948,36.7691 85.5,35.5C 83.0805,26.2317 82.0805,26.565 82.5,36.5C 80.5,36.5 78.5,36.5 76.5,36.5C 76.5,29.1667 76.5,21.8333 76.5,14.5 Z"/></g>
<g><path style="opacity:0.847" fill="#000000" d="M 109.5,14.5 C 112.247,14.1866 114.914,14.52 117.5,15.5C 120.073,22.3896 122.74,29.2229 125.5,36C 122.854,36.4974 120.187,36.6641 117.5,36.5C 117.5,35.5 117.5,34.5 117.5,33.5C 115.143,33.3367 112.81,33.5034 110.5,34C 108.282,36.5094 105.616,37.0094 102.5,35.5C 105.134,28.573 107.468,21.573 109.5,14.5 Z M 113.5,23.5 C 114.339,24.6412 115.006,25.9745 115.5,27.5C 114.675,28.3857 113.675,28.719 112.5,28.5C 112.629,26.7839 112.962,25.1172 113.5,23.5 Z"/></g>
<g><path style="opacity:0.903" fill="#000000" d="M 126.5,14.5 C 131.646,14.1808 136.646,14.8475 141.5,16.5C 144.323,20.9115 143.989,25.0782 140.5,29C 141.417,31.5808 142.751,33.9141 144.5,36C 141.833,36.6667 139.167,36.6667 136.5,36C 135.206,33.913 134.039,31.7463 133,29.5C 132.503,31.8098 132.337,34.1432 132.5,36.5C 130.5,36.5 128.5,36.5 126.5,36.5C 126.5,29.1667 126.5,21.8333 126.5,14.5 Z M 132.5,20.5 C 134.665,20.1159 136.332,20.7826 137.5,22.5C 136.332,24.2174 134.665,24.8841 132.5,24.5C 132.5,23.1667 132.5,21.8333 132.5,20.5 Z"/></g>
</svg>