<svg xmlns="http://www.w3.org/2000/svg" xmlns:xlink="http://www.w3.org/1999/xlink" version="1.1" style="shape-rendering:geometricPrecision; text-rendering:geometricPrecision; image-rendering:optimizeQuality; fill-rule:evenodd; clip-rule:evenodd" viewBox="8.5 7.42 182 43.19">
<g><path style="opacity:0.888" fill="#000000" d="M 27.5,7.5 C 31.509,7.01365 33.3423,8.68031 33,12.5C 27.5,18 22,23.5 16.5,29C 22,34.5 27.5,40 33,45.5C 33.9337,50.0833 32.1004,51.5833 27.5,50C 20.3778,43.5529 14.0444,36.5529 8.5,29C 8.66667,28.1667 8.83333,27.3333 9,26.5C 15.3694,20.2981 21.5361,13.9648 27.5,7.5 Z"/></g>
<g><path style="opacity:0.882" fill="#000000" d="M 166.5,7.5 C 167.873,7.34332 169.207,7.50999 170.5,8C 177.747,14.7429 184.414,21.9096 190.5,29.5C 184.748,36.7567 178.415,43.59 171.5,50C 166.9,51.5833 165.066,50.0833 166,45.5C 171.348,40.3187 176.515,34.9853 181.5,29.5C 176.515,24.0147 171.348,18.6813 166,13.5C 165.322,11.4024 165.489,9.40239 166.5,7.5 Z"/></g>
<g><path style="opacity:0.865" fill="#000000" d="M 47.5,17.5 C 60.8977,15.0645 65.7311,20.3979 62,33.5C 62.2288,36.8103 60.7288,38.6437 57.5,39C 58.8613,40.5843 59.528,42.4176 59.5,44.5C 58.0695,44.4208 56.7362,44.7542 55.5,45.5C 54.059,44.1349 52.7256,42.6349 51.5,41C 47.2403,40.4302 43.0737,39.5969 39,38.5C 37.4725,32.5851 37.1392,26.5851 38,20.5C 41.1339,19.0911 44.3006,18.0911 47.5,17.5 Z M 46.5,25.5 C 49.5,25.5 52.5,25.5 55.5,25.5C 55.8186,27.7505 55.3186,29.7505 54,31.5C 53.6121,30.572 52.9454,29.9054 52,29.5C 50.5,30 49,30.5 47.5,31C 46.1667,32 46.1667,33 47.5,34C 45.892,34.658 44.7253,34.158 44,32.5C 43.5045,30.5273 43.3379,28.5273 43.5,26.5C 44.791,26.7373 45.791,26.404 46.5,25.5 Z"/></g>
<g><path style="opacity:0.856" fill="#000000" d="M 73.5,17.5 C 76.1194,17.2317 78.6194,17.565 81,18.5C 82.6377,25.4581 84.1377,32.4581 85.5,39.5C 83.8917,40.3184 82.2251,40.9851 80.5,41.5C 79.6627,36.4735 76.6627,34.4735 71.5,35.5C 71.2407,39.0681 69.2407,40.4015 65.5,39.5C 65.9271,32.4679 66.5938,25.4679 67.5,18.5C 69.7354,18.7947 71.7354,18.4614 73.5,17.5 Z M 73.5,26.5 C 74.5,26.5 75.5,26.5 76.5,26.5C 76.5,27.8333 76.5,29.1667 76.5,30.5C 72.8141,30.87 71.8141,29.5367 73.5,26.5 Z"/></g>
<g><path style="opacity:0.882" fill="#000000" d="M 87.5,17.5 C 90.8333,17.5 94.1667,17.5 97.5,17.5C 97.6432,20.0974 98.4766,22.4308 100,24.5C 101.952,18.4825 106.119,16.1492 112.5,17.5C 112.906,25.5446 112.906,33.5446 112.5,41.5C 110.298,40.2203 108.132,40.2203 106,41.5C 105.667,37.5 105.333,33.5 105,29.5C 103.527,33.7789 101.527,37.7789 99,41.5C 97.5285,37.4189 95.8618,33.4189 94,29.5C 93.5027,33.5239 93.6693,37.5239 94.5,41.5C 92.1667,41.5 89.8333,41.5 87.5,41.5C 88.6153,33.4687 88.6153,25.4687 87.5,17.5 Z"/></g>
<g><path style="opacity:0.867" fill="#000000" d="M 125.5,17.5 C 127.92,17.2924 130.253,17.6258 132.5,18.5C 134.297,25.7421 135.63,33.0754 136.5,40.5C 135.07,40.4208 133.736,40.7542 132.5,41.5C 131.194,40.0878 130.36,38.4211 130,36.5C 127.936,35.4086 125.769,35.2419 123.5,36C 122.663,37.0113 122.33,38.1779 122.5,39.5C 120.473,39.6621 118.473,39.4955 116.5,39C 117.577,32.254 118.243,25.4207 118.5,18.5C 121.059,18.8016 123.393,18.4682 125.5,17.5 Z M 124.5,26.5 C 127.5,26.1667 128.833,27.5 128.5,30.5C 126.801,30.6602 125.134,30.4935 123.5,30C 124.337,28.9887 124.67,27.8221 124.5,26.5 Z"/></g>
<g><path style="opacity:0.867" fill="#000000" d="M 139.5,18.5 C 145.509,18.3338 151.509,18.5005 157.5,19C 160.349,21.5594 161.183,24.7261 160,28.5C 158.829,29.8932 157.329,30.7265 155.5,31C 158.115,34.0619 159.781,37.5619 160.5,41.5C 157.5,41.5 154.5,41.5 151.5,41.5C 151.149,38.7623 150.482,36.0956 149.5,33.5C 148.675,32.6143 147.675,32.281 146.5,32.5C 146.5,34.8333 146.5,37.1667 146.5,39.5C 143.813,39.6641 141.146,39.4974 138.5,39C 139.479,32.2555 139.812,25.4222 139.5,18.5 Z M 146.5,22.5 C 148.833,22.5 151.167,22.5 153.5,22.5C 153.615,27.3276 151.448,28.6609 147,26.5C 146.51,25.2068 146.343,23.8734 146.5,22.5 Z"/></g>
</svg>