<svg version="1.0" xmlns="http://www.w3.org/2000/svg"
 width="100.000000pt" height="100.000000pt" viewBox="0 0 100.000000 100.000000"
 preserveAspectRatio="xMidYMid meet">

<g transform="translate(0.000000,100.000000) scale(0.100000,-0.100000)"
fill="#000000" stroke="none">
<path d="M406 804 c-72 -23 -149 -103 -172 -179 -32 -111 -6 -202 90 -318 55
-68 56 -69 56 -133 0 -36 4 -73 10 -83 5 -10 32 -26 60 -35 46 -15 54 -15 100
0 28 9 55 25 60 35 6 10 10 47 10 82 0 64 1 65 57 133 95 117 121 208 89 319
-14 45 -29 69 -70 110 -80 80 -178 103 -290 69z m177 -40 c60 -20 129 -95 147
-159 26 -93 0 -175 -89 -280 -28 -32 -51 -65 -51 -72 0 -10 -23 -13 -90 -13
-67 0 -90 3 -90 13 0 7 -23 40 -51 72 -65 77 -89 125 -96 190 -8 79 17 144 77
198 74 66 151 83 243 51z m-128 -624 c0 -8 -8 -16 -17 -18 -13 -2 -18 3 -18
18 0 15 5 20 18 18 9 -2 17 -10 17 -18z m125 0 c0 -17 -7 -20 -44 -20 -25 0
-48 5 -51 10 -12 19 6 30 51 30 37 0 44 -3 44 -20z"/>
<path d="M394 639 c-3 -6 13 -31 37 -55 l43 -44 -44 -45 c-34 -35 -41 -48 -32
-57 9 -9 22 -2 57 32 l45 44 45 -44 c35 -34 48 -41 57 -32 9 9 2 22 -32 57
l-44 45 44 45 c34 35 41 48 32 57 -9 9 -22 2 -57 -32 l-45 -44 -43 42 c-46 45
-52 48 -63 31z"/>
</g>
</svg>
