
<svg version="1.0" xmlns="http://www.w3.org/2000/svg"
 width="100.000000pt" height="100.000000pt" viewBox="0 0 100.000000 100.000000"
 preserveAspectRatio="xMidYMid meet">

<g transform="translate(0.000000,100.000000) scale(0.100000,-0.100000)"
fill="#000000" stroke="none">
<path d="M474 874 c-4 -22 -19 -47 -37 -64 -26 -23 -31 -35 -34 -86 -6 -87
-10 -98 -49 -145 -46 -55 -56 -81 -55 -147 2 -192 254 -271 365 -115 57 82 52
177 -14 257 -43 52 -60 98 -60 165 0 37 -5 49 -34 76 -20 19 -36 44 -38 61 -5
45 -35 44 -44 -2z m36 -104 c6 -12 10 -33 8 -48 -2 -22 -9 -28 -35 -30 -32 -3
-33 -2 -33 35 0 59 37 85 60 43z m51 -147 c5 -14 25 -43 44 -64 69 -77 71
-167 4 -231 -64 -61 -151 -63 -213 -5 -70 66 -70 153 -1 234 19 22 39 53 45
67 8 23 15 26 60 26 46 0 51 -3 61 -27z"/>
<path d="M153 444 c-6 -17 12 -34 37 -34 25 0 43 17 37 34 -4 10 -18 16 -37
16 -19 0 -33 -6 -37 -16z"/>
<path d="M773 444 c-6 -17 12 -34 37 -34 25 0 43 17 37 34 -4 10 -18 16 -37
16 -19 0 -33 -6 -37 -16z"/>
<path d="M272 244 c-22 -15 -30 -48 -13 -59 5 -3 22 6 38 19 25 22 26 26 13
40 -14 14 -18 14 -38 0z"/>
<path d="M689 244 c-12 -14 -10 -19 15 -41 18 -15 32 -21 38 -15 15 15 6 43
-18 59 -18 12 -23 11 -35 -3z"/>
<path d="M480 130 c0 -33 3 -40 20 -40 17 0 20 7 20 40 0 33 -3 40 -20 40 -17
0 -20 -7 -20 -40z"/>
</g>
</svg>
