<svg version="1.0" xmlns="http://www.w3.org/2000/svg"
 width="100.000000pt" height="100.000000pt" viewBox="0 0 100.000000 100.000000"
 preserveAspectRatio="xMidYMid meet">

<g transform="translate(0.000000,100.000000) scale(0.100000,-0.100000)"
fill="#000000" stroke="none">
<path d="M833 888 l-92 -92 -36 41 c-104 122 -295 131 -420 22 -53 -47 -95
-139 -95 -209 0 -65 21 -115 86 -206 l47 -66 -122 -122 c-66 -66 -121 -127
-121 -134 0 -28 31 -5 142 105 l118 118 0 -73 c0 -89 18 -136 63 -162 19 -12
37 -30 40 -41 8 -29 81 -24 85 6 2 12 15 25 31 32 47 17 63 53 69 155 5 91 5
92 60 172 92 135 108 193 81 290 l-11 39 96 96 c53 53 96 102 96 109 0 28 -30
7 -117 -80z m-243 -5 c37 -15 120 -90 120 -108 0 -5 -82 -92 -183 -193 l-183
-183 -47 69 c-77 112 -93 173 -65 253 50 149 211 222 358 162z m154 -184 c16
-81 -4 -138 -89 -257 -24 -34 -48 -77 -53 -95 -8 -30 -12 -32 -55 -35 l-46 -3
-3 78 c-4 101 -22 101 -26 0 l-3 -78 -47 3 c-40 3 -47 6 -53 28 -6 22 14 45
175 208 99 100 184 182 187 182 4 0 9 -14 13 -31z m-154 -428 c0 -7 -147 -31
-193 -31 -10 0 -17 8 -17 20 0 19 7 20 105 20 58 0 105 -4 105 -9z m0 -55 c0
-14 -10 -17 -123 -31 -68 -9 -57 -31 14 -27 30 1 65 5 77 7 40 10 20 -18 -24
-34 -69 -24 -154 7 -154 58 0 15 12 20 83 28 121 15 127 15 127 -1z m-93 -132
c-3 -3 -12 -4 -19 -1 -8 3 -5 6 6 6 11 1 17 -2 13 -5z"/>
<path d="M413 847 c-73 -27 -70 -58 3 -33 26 9 65 16 87 16 26 0 37 4 35 13
-6 16 -85 19 -125 4z"/>
<path d="M575 821 c-5 -10 40 -51 56 -51 17 0 9 29 -13 44 -26 18 -35 20 -43
7z"/>
<path d="M410 577 c0 -8 9 -22 20 -32 16 -14 23 -16 32 -7 9 9 7 16 -7 32 -21
23 -45 26 -45 7z"/>
</g>
</svg>
