<svg version="1.0" xmlns="http://www.w3.org/2000/svg"
 width="96.000000pt" height="96.000000pt" viewBox="0 0 96.000000 96.000000"
 preserveAspectRatio="xMidYMid meet">

<g transform="translate(0.000000,96.000000) scale(0.100000,-0.100000)"
fill="#000000" stroke="none">
<path d="M467 934 c-4 -4 -7 -29 -7 -56 0 -42 3 -48 21 -48 18 0 20 5 17 52
-3 48 -15 68 -31 52z"/>
<path d="M180 807 c0 -7 16 -28 35 -47 27 -26 38 -31 47 -22 9 9 4 20 -22 47
-35 36 -60 45 -60 22z"/>
<path d="M720 785 c-26 -27 -31 -38 -22 -47 9 -9 20 -4 47 22 36 35 45 60 22
60 -7 0 -28 -16 -47 -35z"/>
<path d="M409 777 c-86 -24 -159 -95 -184 -179 -31 -106 -12 -180 75 -288 58
-73 60 -77 60 -135 0 -72 17 -109 50 -113 14 -2 29 -8 35 -13 12 -12 58 -12
70 0 6 5 21 11 35 13 34 4 50 41 50 113 0 58 2 63 50 120 92 109 116 194 86
299 -40 137 -190 221 -327 183z m178 -56 c82 -41 130 -132 120 -225 -6 -64
-26 -104 -82 -171 -23 -27 -47 -60 -54 -72 -11 -21 -19 -23 -91 -23 -72 0 -80
2 -91 22 -7 13 -31 46 -54 73 -56 67 -76 107 -82 171 -19 181 171 309 334 225z
m-147 -586 c0 -8 -9 -15 -20 -15 -11 0 -20 7 -20 15 0 8 9 15 20 15 11 0 20
-7 20 -15z m120 0 c0 -11 -12 -15 -50 -15 -38 0 -50 4 -50 15 0 11 12 15 50
15 38 0 50 -4 50 -15z"/>
<path d="M67 534 c-4 -4 -7 -13 -7 -21 0 -9 16 -13 56 -13 47 0 55 3 52 18 -2
13 -15 18 -48 20 -25 2 -49 0 -53 -4z"/>
<path d="M790 521 c0 -19 6 -21 56 -21 47 0 55 3 52 18 -2 13 -15 18 -56 20
-47 3 -52 1 -52 -17z"/>
<path d="M211 276 c-23 -24 -32 -40 -27 -52 6 -15 13 -12 48 23 22 23 37 46
34 52 -11 17 -20 14 -55 -23z"/>
<path d="M694 299 c-3 -6 12 -29 34 -52 35 -35 42 -38 48 -23 5 12 -4 28 -27
52 -35 37 -44 40 -55 23z"/>
</g>
</svg>
