
<svg version="1.0" xmlns="http://www.w3.org/2000/svg"
 width="100.000000pt" height="100.000000pt" viewBox="0 0 100.000000 100.000000"
 preserveAspectRatio="xMidYMid meet">

<g transform="translate(0.000000,100.000000) scale(0.100000,-0.100000)"
fill="#000000" stroke="none">
<path d="M403 946 c-59 -19 -104 -49 -153 -102 -84 -92 -109 -207 -71 -332 24
-79 82 -173 141 -226 39 -35 40 -38 40 -101 0 -52 4 -69 20 -85 11 -11 26 -20
33 -20 8 0 22 -9 32 -20 24 -27 86 -27 110 0 10 11 24 20 32 20 7 0 22 9 33
20 16 16 20 33 20 85 0 63 1 66 40 101 59 53 117 147 141 226 39 128 13 242
-77 338 -64 68 -136 102 -227 106 -43 2 -89 -2 -114 -10z m231 -60 c105 -51
160 -144 161 -266 0 -66 -4 -84 -37 -153 -22 -46 -58 -100 -89 -132 l-52 -55
-117 0 -117 0 -52 55 c-61 64 -119 179 -128 252 -27 234 218 403 431 299z"/>
</g>
</svg>
